<svg xmlns="http://www.w3.org/2000/svg" viewBox="0 0 125.4561 125.4562"><path d="M70.1719,0H55.2842C18.8706,0,0,19.9988,0,58.6308v8.1946c0,38.632,18.8706,58.6308,55.2842,58.6308H70.1719c36.4135,0,55.2842-19.9988,55.2842-58.6308V58.6308C125.4561,19.9988,106.5854,0,70.1719,0ZM108.73,107.9983c-8.7632,8.8824-19.5151,13.6034-35.5352,7.6433-11.1894-4.163-27.1-15.5336-37.5874-25.88C22.3267,76.66,10.2822,59.0975,7.0977,45.4772c-2.93-12.5334,2.1543-21.3553,9.2871-28.585C25.6855,7.4651,38.93,3.33,56.0513,10.533c10.2783,4.3245,23.89,15.1577,33.456,24.5955,12.6323,12.4627,24.8218,30.0965,28.36,43.1842C121.4727,91.6448,116.2407,100.3852,108.73,107.9983Z"/></svg>