<svg xmlns="http://www.w3.org/2000/svg" viewBox="0 0 176.0862 211.3036"><polygon points="70.434 176.086 35.217 176.086 35.217 211.304 70.434 211.304 105.652 211.304 140.869 211.304 140.869 176.086 105.652 176.086 70.434 176.086"/><polygon points="35.217 105.652 35.217 70.435 35.217 35.217 0 35.217 0 70.435 0 105.652 0 140.869 0 176.086 35.217 176.086 35.217 140.869 35.217 105.652"/><polygon points="105.652 35.217 140.869 35.217 140.869 0 105.652 0 70.434 0 35.217 0 35.217 35.217 70.434 35.217 105.652 35.217"/><polygon points="140.869 35.217 140.869 70.435 140.869 105.652 140.869 140.869 140.869 176.086 176.086 176.086 176.086 140.869 176.086 105.652 176.086 70.435 176.086 35.217 140.869 35.217"/></svg>