<svg xmlns="http://www.w3.org/2000/svg" viewBox="0 0 182.0996 182.0922"><path d="M92.12.0922H78.39C30.08-1.8878,0,28.0822,0,83.7621v12.61c0,58.32,30.83,85.72,82.59,85.72h19.26c52.86,0,80.25-30.04,80.25-88.07v-12.31C182.1,28.9621,153.74.0922,92.12.0922Zm53.99,160.43c-15.18,13.24-27.12,13.99-39.48,5.78,0-.01-.01-.01-.02-.01-5.89-3.92-11.87-9.87-18.34-17.47a.4721.4721,0,0,0-.09-.12c-8.66-11.72-18.84-29.58-25.56-44.28-.34-.74-.67-1.47-.99-2.2-20.61-45.51-24.33-53.83-28.8-75.22-.6-2.87.19-5.08,1.59-6.23,14.8-12.16,29-12.66,43.81-1.76a.3844.3844,0,0,1,.11.08,85.1023,85.1023,0,0,1,14.02,13.49c8.26,10.3,18.43,28.93,25.56,44.29v.01c.1.22.2.44.3.65.42.93.83,1.84,1.24,2.74.03.07.07.15.1.22,20.04,44.27,23.73,52.63,28.15,73.8C148.31,157.1622,147.48,159.3322,146.11,160.5221Z"/></svg>